<svg width="10" height="7" viewBox="0 0 10 7" fill="none" xmlns="http://www.w3.org/2000/svg">
<path d="M9.2728 1.26445C9.27559 1.13314 9.23879 1.00419 9.16744 0.895528C9.09609 0.786867 8.99373 0.703896 8.87468 0.65815C8.75563 0.612404 8.62578 0.606157 8.50313 0.640275C8.38049 0.674394 8.27122 0.747184 8.19043 0.848526L4.98737 4.71529L1.78544 0.848526C1.73562 0.778423 1.67237 0.719713 1.5996 0.676074C1.52682 0.632434 1.4461 0.604805 1.36252 0.594916C1.27894 0.585027 1.1943 0.593092 1.11388 0.618605C1.03345 0.644118 0.958963 0.686529 0.895121 0.743184C0.831279 0.799838 0.779492 0.869515 0.742893 0.947851C0.706295 1.02619 0.685739 1.11149 0.682495 1.19843C0.679252 1.28537 0.693352 1.37206 0.724006 1.45308C0.754659 1.5341 0.801156 1.6077 0.860588 1.66927L4.52315 6.09636C4.58052 6.16588 4.65172 6.22171 4.73197 6.25999C4.81222 6.29827 4.89956 6.31809 4.98794 6.31809C5.07631 6.31809 5.16366 6.29827 5.24391 6.25999C5.32416 6.22171 5.39543 6.16588 5.4528 6.09636L9.11888 1.66927C9.21493 1.55744 9.26954 1.41399 9.27294 1.26445H9.2728Z" fill="#626262"/>
</svg>
